<?xml version="1.0" standalone="no"?>
<!DOCTYPE svg PUBLIC "-//W3C//DTD SVG 20010904//EN"
 "http://www.w3.org/TR/2001/REC-SVG-20010904/DTD/svg10.dtd">
<svg version="1.0" xmlns="http://www.w3.org/2000/svg"
 width="512.000000pt" height="512.000000pt" viewBox="0 0 512.000000 512.000000"
 preserveAspectRatio="xMidYMid meet">
<metadata>
Created by potrace 1.11, written by Peter Selinger 2001-2013
</metadata>
<g transform="translate(0.000000,512.000000) scale(0.100000,-0.100000)"
fill="#000000" stroke="none">
<path d="M1590 3907 c-27 -8 -173 -148 -628 -601 -644 -642 -642 -640 -642
-746 0 -106 -2 -104 642 -746 510 -508 599 -592 634 -602 171 -49 324 61 324
230 -1 102 -4 106 -528 631 l-487 487 487 488 c369 369 492 498 507 532 57
127 -12 291 -138 329 -46 13 -123 13 -171 -2z"/>
<path d="M3336 3900 c-55 -28 -82 -55 -111 -114 -32 -63 -33 -142 -4 -206 15
-34 138 -163 507 -532 l487 -488 -487 -487 c-526 -527 -527 -529 -528 -634 0
-178 183 -292 345 -215 40 19 170 145 632 607 628 630 622 623 623 730 0 105
2 103 -642 745 -647 644 -611 614 -729 614 -33 -1 -69 -8 -93 -20z"/>
<path d="M1732 2774 c-184 -91 -173 -361 18 -442 47 -20 136 -19 185 2 89 38
148 128 148 226 -1 181 -189 295 -351 214z"/>
<path d="M2452 2774 c-184 -91 -173 -361 18 -442 47 -20 136 -19 185 2 89 38
148 128 148 226 -1 181 -189 295 -351 214z"/>
<path d="M3172 2774 c-184 -91 -173 -361 18 -442 47 -20 136 -19 185 2 89 38
148 128 148 226 -1 181 -189 295 -351 214z"/>
</g>
</svg>
